<mxfile host="app.diagrams.net" agent="Mozilla/5.0 (Windows NT 10.0; Win64; x64) AppleWebKit/537.36 (KHTML, like Gecko) Chrome/140.0.0.0 Safari/537.36 Edg/140.0.0.0" version="28.2.3">
  <diagram name="Trang-1" id="yUQ5ibKLt25RUjcwi0D3">
    <mxGraphModel dx="1938" dy="681" grid="1" gridSize="10" guides="1" tooltips="1" connect="1" arrows="1" fold="1" page="1" pageScale="1" pageWidth="827" pageHeight="1169" math="0" shadow="0">
      <root>
        <mxCell id="0" />
        <mxCell id="1" parent="0" />
        <mxCell id="4dlTq4zdflggqMSfofc4-1" value="Car" style="rounded=0;whiteSpace=wrap;html=1;fontStyle=1" parent="1" vertex="1">
          <mxGeometry x="60" y="80" width="120" height="60" as="geometry" />
        </mxCell>
        <mxCell id="4dlTq4zdflggqMSfofc4-2" value="Car&lt;div&gt;Details&lt;/div&gt;" style="rounded=0;whiteSpace=wrap;html=1;fontStyle=1" parent="1" vertex="1">
          <mxGeometry x="-50" y="200" width="120" height="60" as="geometry" />
        </mxCell>
        <mxCell id="4dlTq4zdflggqMSfofc4-3" value="" style="endArrow=diamondThin;endFill=1;endSize=24;html=1;rounded=0;exitX=0.5;exitY=0;exitDx=0;exitDy=0;entryX=0;entryY=0.5;entryDx=0;entryDy=0;" parent="1" source="4dlTq4zdflggqMSfofc4-2" target="4dlTq4zdflggqMSfofc4-1" edge="1">
          <mxGeometry width="160" relative="1" as="geometry">
            <mxPoint x="70" y="250" as="sourcePoint" />
            <mxPoint x="230" y="250" as="targetPoint" />
            <Array as="points">
              <mxPoint x="10" y="110" />
            </Array>
          </mxGeometry>
        </mxCell>
        <mxCell id="4dlTq4zdflggqMSfofc4-4" value="details" style="text;align=center;verticalAlign=middle;resizable=0;points=[];autosize=1;strokeColor=none;fillColor=none;html=1;textShadow=0;" parent="1" vertex="1">
          <mxGeometry x="-40" y="138" width="60" height="30" as="geometry" />
        </mxCell>
        <mxCell id="4dlTq4zdflggqMSfofc4-7" value="Rental" style="rounded=0;whiteSpace=wrap;html=1;fontStyle=1" parent="1" vertex="1">
          <mxGeometry x="470" y="80" width="160" height="60" as="geometry" />
        </mxCell>
        <mxCell id="4dlTq4zdflggqMSfofc4-8" value="" style="endArrow=none;html=1;rounded=0;exitX=1;exitY=0.5;exitDx=0;exitDy=0;entryX=0;entryY=0.5;entryDx=0;entryDy=0;" parent="1" source="4dlTq4zdflggqMSfofc4-1" target="4dlTq4zdflggqMSfofc4-7" edge="1">
          <mxGeometry width="50" height="50" relative="1" as="geometry">
            <mxPoint x="330" y="410" as="sourcePoint" />
            <mxPoint x="380" y="360" as="targetPoint" />
          </mxGeometry>
        </mxCell>
        <mxCell id="4dlTq4zdflggqMSfofc4-9" value="1..*" style="text;html=1;align=center;verticalAlign=middle;resizable=0;points=[];autosize=1;strokeColor=none;fillColor=none;" parent="1" vertex="1">
          <mxGeometry x="180" y="78" width="40" height="30" as="geometry" />
        </mxCell>
        <mxCell id="4dlTq4zdflggqMSfofc4-10" value="rented under" style="text;html=1;align=center;verticalAlign=middle;resizable=0;points=[];autosize=1;strokeColor=none;fillColor=none;" parent="1" vertex="1">
          <mxGeometry x="255" y="78" width="90" height="30" as="geometry" />
        </mxCell>
        <mxCell id="4dlTq4zdflggqMSfofc4-11" value="0..1" style="text;html=1;align=center;verticalAlign=middle;resizable=0;points=[];autosize=1;strokeColor=none;fillColor=none;" parent="1" vertex="1">
          <mxGeometry x="422" y="78" width="40" height="30" as="geometry" />
        </mxCell>
        <mxCell id="4dlTq4zdflggqMSfofc4-12" value="Customer" style="rounded=0;whiteSpace=wrap;html=1;fontStyle=3" parent="1" vertex="1">
          <mxGeometry x="700" y="240" width="120" height="60" as="geometry" />
        </mxCell>
        <mxCell id="4dlTq4zdflggqMSfofc4-13" value="" style="endArrow=none;html=1;rounded=0;exitX=1;exitY=0.5;exitDx=0;exitDy=0;entryX=0.5;entryY=0;entryDx=0;entryDy=0;" parent="1" source="4dlTq4zdflggqMSfofc4-7" target="4dlTq4zdflggqMSfofc4-12" edge="1">
          <mxGeometry width="50" height="50" relative="1" as="geometry">
            <mxPoint x="620" y="410" as="sourcePoint" />
            <mxPoint x="670" y="360" as="targetPoint" />
            <Array as="points">
              <mxPoint x="760" y="110" />
            </Array>
          </mxGeometry>
        </mxCell>
        <mxCell id="4dlTq4zdflggqMSfofc4-14" value="taken out&amp;nbsp;&lt;div&gt;by&lt;/div&gt;" style="text;html=1;align=center;verticalAlign=middle;resizable=0;points=[];autosize=1;strokeColor=none;fillColor=none;" parent="1" vertex="1">
          <mxGeometry x="760" y="143" width="80" height="40" as="geometry" />
        </mxCell>
        <mxCell id="4dlTq4zdflggqMSfofc4-16" value="Car Model" style="rounded=0;whiteSpace=wrap;html=1;fontStyle=1" parent="1" vertex="1">
          <mxGeometry x="60" y="408" width="120" height="60" as="geometry" />
        </mxCell>
        <mxCell id="4dlTq4zdflggqMSfofc4-17" value="Make" style="rounded=0;whiteSpace=wrap;html=1;fontStyle=1" parent="1" vertex="1">
          <mxGeometry x="-90" y="320" width="120" height="60" as="geometry" />
        </mxCell>
        <mxCell id="4dlTq4zdflggqMSfofc4-18" value="1..*" style="text;html=1;align=center;verticalAlign=middle;resizable=0;points=[];autosize=1;strokeColor=none;fillColor=none;" parent="1" vertex="1">
          <mxGeometry x="-76" y="378" width="40" height="30" as="geometry" />
        </mxCell>
        <mxCell id="4dlTq4zdflggqMSfofc4-19" value="" style="endArrow=none;html=1;rounded=0;exitX=0.5;exitY=1;exitDx=0;exitDy=0;entryX=0;entryY=0.5;entryDx=0;entryDy=0;" parent="1" source="4dlTq4zdflggqMSfofc4-17" target="4dlTq4zdflggqMSfofc4-16" edge="1">
          <mxGeometry width="50" height="50" relative="1" as="geometry">
            <mxPoint x="140" y="430" as="sourcePoint" />
            <mxPoint x="190" y="380" as="targetPoint" />
            <Array as="points">
              <mxPoint x="-30" y="438" />
            </Array>
          </mxGeometry>
        </mxCell>
        <mxCell id="4dlTq4zdflggqMSfofc4-20" value="" style="endArrow=none;html=1;rounded=0;entryX=0.5;entryY=1;entryDx=0;entryDy=0;exitX=0.5;exitY=0;exitDx=0;exitDy=0;" parent="1" source="4dlTq4zdflggqMSfofc4-16" target="4dlTq4zdflggqMSfofc4-1" edge="1">
          <mxGeometry width="50" height="50" relative="1" as="geometry">
            <mxPoint x="140" y="430" as="sourcePoint" />
            <mxPoint x="190" y="380" as="targetPoint" />
          </mxGeometry>
        </mxCell>
        <mxCell id="4dlTq4zdflggqMSfofc4-25" value="Example of" style="edgeLabel;html=1;align=center;verticalAlign=middle;resizable=0;points=[];" parent="4dlTq4zdflggqMSfofc4-20" vertex="1" connectable="0">
          <mxGeometry x="-0.0431" relative="1" as="geometry">
            <mxPoint as="offset" />
          </mxGeometry>
        </mxCell>
        <mxCell id="4dlTq4zdflggqMSfofc4-22" value="makes" style="text;html=1;align=center;verticalAlign=middle;resizable=0;points=[];autosize=1;strokeColor=none;fillColor=none;" parent="1" vertex="1">
          <mxGeometry x="-40" y="408" width="60" height="30" as="geometry" />
        </mxCell>
        <mxCell id="4dlTq4zdflggqMSfofc4-26" value="Car&amp;nbsp;&lt;div&gt;Model&amp;nbsp;&lt;div&gt;Details&lt;/div&gt;&lt;/div&gt;" style="rounded=0;whiteSpace=wrap;html=1;fontStyle=1" parent="1" vertex="1">
          <mxGeometry x="260" y="240" width="120" height="60" as="geometry" />
        </mxCell>
        <mxCell id="4dlTq4zdflggqMSfofc4-28" value="" style="endArrow=diamondThin;endFill=1;endSize=24;html=1;rounded=0;exitX=0.5;exitY=1;exitDx=0;exitDy=0;entryX=1;entryY=0.25;entryDx=0;entryDy=0;" parent="1" source="4dlTq4zdflggqMSfofc4-26" target="4dlTq4zdflggqMSfofc4-16" edge="1">
          <mxGeometry width="160" relative="1" as="geometry">
            <mxPoint x="140" y="410" as="sourcePoint" />
            <mxPoint x="300" y="410" as="targetPoint" />
            <Array as="points">
              <mxPoint x="320" y="423" />
            </Array>
          </mxGeometry>
        </mxCell>
        <mxCell id="4dlTq4zdflggqMSfofc4-29" value="details" style="edgeLabel;html=1;align=center;verticalAlign=middle;resizable=0;points=[];" parent="4dlTq4zdflggqMSfofc4-28" vertex="1" connectable="0">
          <mxGeometry x="-0.444" relative="1" as="geometry">
            <mxPoint as="offset" />
          </mxGeometry>
        </mxCell>
        <mxCell id="4dlTq4zdflggqMSfofc4-30" value="1" style="text;html=1;align=center;verticalAlign=middle;resizable=0;points=[];autosize=1;strokeColor=none;fillColor=none;" parent="1" vertex="1">
          <mxGeometry x="295" y="295" width="30" height="30" as="geometry" />
        </mxCell>
        <mxCell id="4dlTq4zdflggqMSfofc4-31" value="*" style="text;html=1;align=center;verticalAlign=middle;resizable=0;points=[];autosize=1;strokeColor=none;fillColor=none;" parent="1" vertex="1">
          <mxGeometry x="35" y="432" width="30" height="30" as="geometry" />
        </mxCell>
        <mxCell id="4dlTq4zdflggqMSfofc4-32" value="Category" style="rounded=0;whiteSpace=wrap;html=1;fontStyle=1" parent="1" vertex="1">
          <mxGeometry y="570" width="120" height="60" as="geometry" />
        </mxCell>
        <mxCell id="4dlTq4zdflggqMSfofc4-33" value="" style="endArrow=none;html=1;rounded=0;exitX=0.25;exitY=1;exitDx=0;exitDy=0;entryX=0.75;entryY=0;entryDx=0;entryDy=0;" parent="1" source="4dlTq4zdflggqMSfofc4-16" target="4dlTq4zdflggqMSfofc4-32" edge="1">
          <mxGeometry width="50" height="50" relative="1" as="geometry">
            <mxPoint x="220" y="410" as="sourcePoint" />
            <mxPoint x="270" y="360" as="targetPoint" />
          </mxGeometry>
        </mxCell>
        <mxCell id="4dlTq4zdflggqMSfofc4-34" value="classified&lt;div&gt;as&lt;/div&gt;" style="edgeLabel;html=1;align=center;verticalAlign=middle;resizable=0;points=[];" parent="4dlTq4zdflggqMSfofc4-33" vertex="1" connectable="0">
          <mxGeometry x="0.0588" y="-2" relative="1" as="geometry">
            <mxPoint y="1" as="offset" />
          </mxGeometry>
        </mxCell>
        <mxCell id="4dlTq4zdflggqMSfofc4-35" value="1" style="text;html=1;align=center;verticalAlign=middle;resizable=0;points=[];autosize=1;strokeColor=none;fillColor=none;" parent="1" vertex="1">
          <mxGeometry x="85" y="548" width="30" height="30" as="geometry" />
        </mxCell>
        <mxCell id="4dlTq4zdflggqMSfofc4-36" value="Vendor" style="rounded=0;whiteSpace=wrap;html=1;fontStyle=1" parent="1" vertex="1">
          <mxGeometry x="135" y="570" width="115" height="60" as="geometry" />
        </mxCell>
        <mxCell id="4dlTq4zdflggqMSfofc4-38" value="" style="endArrow=none;html=1;rounded=0;exitX=0.861;exitY=0.974;exitDx=0;exitDy=0;entryX=0.25;entryY=0;entryDx=0;entryDy=0;exitPerimeter=0;" parent="1" source="4dlTq4zdflggqMSfofc4-16" target="4dlTq4zdflggqMSfofc4-36" edge="1">
          <mxGeometry width="50" height="50" relative="1" as="geometry">
            <mxPoint x="220" y="410" as="sourcePoint" />
            <mxPoint x="270" y="360" as="targetPoint" />
          </mxGeometry>
        </mxCell>
        <mxCell id="4dlTq4zdflggqMSfofc4-40" value="sold&lt;div&gt;by&lt;/div&gt;" style="edgeLabel;html=1;align=center;verticalAlign=middle;resizable=0;points=[];" parent="4dlTq4zdflggqMSfofc4-38" vertex="1" connectable="0">
          <mxGeometry x="-0.0556" y="1" relative="1" as="geometry">
            <mxPoint y="1" as="offset" />
          </mxGeometry>
        </mxCell>
        <mxCell id="4dlTq4zdflggqMSfofc4-41" value="1" style="text;html=1;align=center;verticalAlign=middle;resizable=0;points=[];autosize=1;strokeColor=none;fillColor=none;" parent="1" vertex="1">
          <mxGeometry x="165" y="548" width="30" height="30" as="geometry" />
        </mxCell>
        <mxCell id="4dlTq4zdflggqMSfofc4-42" value="" style="endArrow=none;html=1;rounded=0;exitX=1;exitY=0.75;exitDx=0;exitDy=0;entryX=0;entryY=0.5;entryDx=0;entryDy=0;" parent="1" source="4dlTq4zdflggqMSfofc4-16" target="4dlTq4zdflggqMSfofc4-12" edge="1">
          <mxGeometry width="50" height="50" relative="1" as="geometry">
            <mxPoint x="380" y="410" as="sourcePoint" />
            <mxPoint x="430" y="360" as="targetPoint" />
            <Array as="points">
              <mxPoint x="430" y="453" />
              <mxPoint x="430" y="270" />
            </Array>
          </mxGeometry>
        </mxCell>
        <mxCell id="4dlTq4zdflggqMSfofc4-43" value="*" style="text;html=1;align=center;verticalAlign=middle;resizable=0;points=[];autosize=1;strokeColor=none;fillColor=none;" parent="1" vertex="1">
          <mxGeometry x="668" y="242" width="30" height="30" as="geometry" />
        </mxCell>
        <mxCell id="4dlTq4zdflggqMSfofc4-44" value="1" style="text;html=1;align=center;verticalAlign=middle;resizable=0;points=[];autosize=1;strokeColor=none;fillColor=none;" parent="1" vertex="1">
          <mxGeometry x="727" y="208" width="30" height="30" as="geometry" />
        </mxCell>
        <mxCell id="4dlTq4zdflggqMSfofc4-45" value="" style="endArrow=none;dashed=1;html=1;dashPattern=1 3;strokeWidth=2;rounded=0;exitX=0.5;exitY=0;exitDx=0;exitDy=0;" parent="1" source="4dlTq4zdflggqMSfofc4-46" edge="1">
          <mxGeometry width="50" height="50" relative="1" as="geometry">
            <mxPoint x="320" y="510" as="sourcePoint" />
            <mxPoint x="320" y="450" as="targetPoint" />
          </mxGeometry>
        </mxCell>
        <mxCell id="4dlTq4zdflggqMSfofc4-46" value="Reservation" style="rounded=0;whiteSpace=wrap;html=1;fontStyle=1" parent="1" vertex="1">
          <mxGeometry x="260" y="510" width="120" height="30" as="geometry" />
        </mxCell>
        <mxCell id="4dlTq4zdflggqMSfofc4-47" value="Member" style="rounded=0;whiteSpace=wrap;html=1;" parent="1" vertex="1">
          <mxGeometry x="590" y="417" width="120" height="60" as="geometry" />
        </mxCell>
        <mxCell id="4dlTq4zdflggqMSfofc4-48" value="NonMember" style="rounded=0;whiteSpace=wrap;html=1;fontStyle=1" parent="1" vertex="1">
          <mxGeometry x="850" y="417" width="120" height="60" as="geometry" />
        </mxCell>
        <mxCell id="4dlTq4zdflggqMSfofc4-49" value="Credit&lt;div&gt;card&lt;/div&gt;" style="rounded=0;whiteSpace=wrap;html=1;fontStyle=1" parent="1" vertex="1">
          <mxGeometry x="518" y="600" width="120" height="60" as="geometry" />
        </mxCell>
        <mxCell id="4dlTq4zdflggqMSfofc4-50" value="Address" style="rounded=0;whiteSpace=wrap;html=1;fontStyle=1" parent="1" vertex="1">
          <mxGeometry x="662" y="600" width="120" height="60" as="geometry" />
        </mxCell>
        <mxCell id="4dlTq4zdflggqMSfofc4-51" value="Internet Account" style="rounded=0;whiteSpace=wrap;html=1;" parent="1" vertex="1">
          <mxGeometry x="910" y="540" width="120" height="60" as="geometry" />
        </mxCell>
        <mxCell id="4dlTq4zdflggqMSfofc4-52" value="" style="endArrow=none;html=1;rounded=0;entryX=0;entryY=0.5;entryDx=0;entryDy=0;" parent="1" target="4dlTq4zdflggqMSfofc4-51" edge="1">
          <mxGeometry width="50" height="50" relative="1" as="geometry">
            <mxPoint x="710" y="447" as="sourcePoint" />
            <mxPoint x="898" y="570" as="targetPoint" />
            <Array as="points">
              <mxPoint x="778" y="447" />
              <mxPoint x="778" y="570" />
            </Array>
          </mxGeometry>
        </mxCell>
        <mxCell id="4dlTq4zdflggqMSfofc4-53" value="logs in with" style="edgeLabel;html=1;align=center;verticalAlign=middle;resizable=0;points=[];" parent="4dlTq4zdflggqMSfofc4-52" vertex="1" connectable="0">
          <mxGeometry x="-0.2143" y="-5" relative="1" as="geometry">
            <mxPoint as="offset" />
          </mxGeometry>
        </mxCell>
        <mxCell id="4dlTq4zdflggqMSfofc4-54" value="" style="endArrow=none;html=1;rounded=0;exitX=0.5;exitY=0;exitDx=0;exitDy=0;entryX=0.5;entryY=0;entryDx=0;entryDy=0;" parent="1" source="4dlTq4zdflggqMSfofc4-47" target="4dlTq4zdflggqMSfofc4-48" edge="1">
          <mxGeometry width="50" height="50" relative="1" as="geometry">
            <mxPoint x="810" y="540" as="sourcePoint" />
            <mxPoint x="860" y="490" as="targetPoint" />
            <Array as="points">
              <mxPoint x="650" y="350" />
              <mxPoint x="910" y="350" />
            </Array>
          </mxGeometry>
        </mxCell>
        <mxCell id="4dlTq4zdflggqMSfofc4-56" value="" style="endArrow=block;endFill=0;endSize=12;html=1;rounded=0;entryX=0.5;entryY=1;entryDx=0;entryDy=0;" parent="1" target="4dlTq4zdflggqMSfofc4-12" edge="1">
          <mxGeometry width="160" relative="1" as="geometry">
            <mxPoint x="760" y="350" as="sourcePoint" />
            <mxPoint x="920" y="520" as="targetPoint" />
          </mxGeometry>
        </mxCell>
        <mxCell id="4dlTq4zdflggqMSfofc4-59" value="" style="endArrow=none;html=1;rounded=0;entryX=0.25;entryY=1;entryDx=0;entryDy=0;exitX=0.852;exitY=0.033;exitDx=0;exitDy=0;exitPerimeter=0;" parent="1" source="4dlTq4zdflggqMSfofc4-49" target="4dlTq4zdflggqMSfofc4-47" edge="1">
          <mxGeometry width="50" height="50" relative="1" as="geometry">
            <mxPoint x="810" y="540" as="sourcePoint" />
            <mxPoint x="860" y="490" as="targetPoint" />
          </mxGeometry>
        </mxCell>
        <mxCell id="4dlTq4zdflggqMSfofc4-64" value="guaranteed&lt;div&gt;by&lt;/div&gt;" style="edgeLabel;html=1;align=center;verticalAlign=middle;resizable=0;points=[];" parent="4dlTq4zdflggqMSfofc4-59" vertex="1" connectable="0">
          <mxGeometry x="0.0132" relative="1" as="geometry">
            <mxPoint as="offset" />
          </mxGeometry>
        </mxCell>
        <mxCell id="4dlTq4zdflggqMSfofc4-60" value="" style="endArrow=none;html=1;rounded=0;exitX=0.75;exitY=1;exitDx=0;exitDy=0;entryX=0.155;entryY=-0.004;entryDx=0;entryDy=0;entryPerimeter=0;" parent="1" source="4dlTq4zdflggqMSfofc4-47" target="4dlTq4zdflggqMSfofc4-50" edge="1">
          <mxGeometry width="50" height="50" relative="1" as="geometry">
            <mxPoint x="810" y="540" as="sourcePoint" />
            <mxPoint x="860" y="490" as="targetPoint" />
          </mxGeometry>
        </mxCell>
        <mxCell id="4dlTq4zdflggqMSfofc4-65" value="lives&lt;div&gt;at&lt;/div&gt;" style="edgeLabel;html=1;align=center;verticalAlign=middle;resizable=0;points=[];" parent="4dlTq4zdflggqMSfofc4-60" vertex="1" connectable="0">
          <mxGeometry x="0.0319" y="1" relative="1" as="geometry">
            <mxPoint as="offset" />
          </mxGeometry>
        </mxCell>
        <mxCell id="4dlTq4zdflggqMSfofc4-61" value="1" style="text;html=1;align=center;verticalAlign=middle;resizable=0;points=[];autosize=1;strokeColor=none;fillColor=none;" parent="1" vertex="1">
          <mxGeometry x="705" y="418" width="30" height="30" as="geometry" />
        </mxCell>
        <mxCell id="4dlTq4zdflggqMSfofc4-62" value="1..*" style="text;html=1;align=center;verticalAlign=middle;resizable=0;points=[];autosize=1;strokeColor=none;fillColor=none;" parent="1" vertex="1">
          <mxGeometry x="640" y="473" width="40" height="30" as="geometry" />
        </mxCell>
        <mxCell id="4dlTq4zdflggqMSfofc4-63" value="1..*" style="text;html=1;align=center;verticalAlign=middle;resizable=0;points=[];autosize=1;strokeColor=none;fillColor=none;" parent="1" vertex="1">
          <mxGeometry x="573" y="472" width="40" height="30" as="geometry" />
        </mxCell>
        <mxCell id="4dlTq4zdflggqMSfofc4-66" value="1" style="text;html=1;align=center;verticalAlign=middle;resizable=0;points=[];autosize=1;strokeColor=none;fillColor=none;" parent="1" vertex="1">
          <mxGeometry x="655" y="578" width="30" height="30" as="geometry" />
        </mxCell>
        <mxCell id="4dlTq4zdflggqMSfofc4-67" value="1" style="text;html=1;align=center;verticalAlign=middle;resizable=0;points=[];autosize=1;strokeColor=none;fillColor=none;" parent="1" vertex="1">
          <mxGeometry x="585" y="578" width="30" height="30" as="geometry" />
        </mxCell>
        <mxCell id="4dlTq4zdflggqMSfofc4-68" value="1" style="text;html=1;align=center;verticalAlign=middle;resizable=0;points=[];autosize=1;strokeColor=none;fillColor=none;" parent="1" vertex="1">
          <mxGeometry x="885" y="568" width="30" height="30" as="geometry" />
        </mxCell>
      </root>
    </mxGraphModel>
  </diagram>
</mxfile>
